<svg id="Outline" enable-background="new 0 0 512 512" viewBox="0 0 512 512" xmlns="http://www.w3.org/2000/svg"><path d="m504.643 464h-60.451c2.756-4.726 4.451-10.146 4.451-16h19.281c6.5 0 12.641-2.828 16.859-7.758 4.219-4.934 6.055-11.453 5.047-17.875-5.242-33.602-24.867-50.609-36.102-57.762-2.25-1.43-3.836-3.832-4.438-6.633l-3.453-17.508c-1.898-9.207-8.692-16.394-17.27-19.174l44.668-238.169c.617-3.336 2.875-6.078 6.023-7.34l19.969-7.988c10.055-4.016 15.25-15.207 11.82-25.469-1.805-5.414-5.828-9.859-11.031-12.199-5.195-2.332-11.203-2.395-16.445-.141l-23.305 9.988c-15.164 6.496-25.93 20.074-28.797 36.32l-43.003 243.708h-53.424c-10.516 0-19.812 6.281-23.672 15.984l-6.945 17.352c-1.984 4.938-6.227 8.656-11.328 9.941l-63.883 15.992c-15.141 3.711-27.164 14.816-32.156 29.719l-3.289 9.863c-2.266 6.859-1.148 14.145 3.07 19.98 4.211 5.828 10.758 9.168 17.961 9.168h17.844c0 5.854 1.695 11.274 4.451 16h-28.146c-7.156 0-13.609-1.906-18.656-5.512-8.148-5.816-7.516-11.586-6.062-15.957 9.461-28.367-16.805-55.066-17.93-56.188-2.5-2.5-6.336-3.062-9.43-1.398-3.109 1.664-4.766 5.168-4.07 8.625 3.867 19.336-.648 29.41-4.938 34.402-5.938-19.66.844-53.027 4.477-65.777.938-3.305-.336-6.84-3.164-8.785-2.836-1.949-6.602-1.867-9.328.191-17.461 13.09-28.227 34.348-34.641 52.375-4.312-40.836-2.219-105.5-.578-133.508.195-3.316-1.68-6.406-4.711-7.766-3.016-1.359-6.586-.715-8.93 1.641-25.039 25.035-32.555 77.316-34.461 116.625-17.031-26.512-41.656-44.352-43.234-45.48-3.062-2.184-7.227-1.957-10.016.578-2.781 2.52-3.445 6.641-1.578 9.902 24.867 43.523 19.031 98.348 16.203 116.312-9.782 1.627-17.259 10.151-17.259 20.389v19.332c0 4.418 3.578 8 8 8h496c4.422 0 8-3.582 8-8v-32c0-4.418-3.578-8-8-8zm-208-16h88c0 5.854 1.695 11.274 4.451 16h-96.901c2.755-4.726 4.45-10.146 4.45-16zm104 0c0-8.824 7.18-16 16-16s16 7.176 16 16-7.18 16-16 16-16-7.176-16-16zm65.922-393.324 23.305-9.984c1.586-.68 2.914-.266 3.594.031.664.297 1.867 1.043 2.406 2.664.742 2.234-.383 4.672-2.578 5.551l-19.969 7.988c-7.45 2.979-12.807 9.199-15.024 16.788l-9.553-4.112c3.057-8.432 9.404-15.316 17.819-18.926zm-21.195 34.892 9.604 4.134-42.435 226.298h-7.833zm-230.571 342.432c-2.008 0-3.828-.926-4.992-2.539-1.18-1.629-1.484-3.664-.859-5.57l3.281-9.828c3.188-9.512 11.156-16.891 20.836-19.262l63.938-16.004c2.537-.641 4.958-1.59 7.231-2.797h89.558c4.422 0 8-3.582 8-8s-3.578-8-8-8h-74.903c.108-.25.286-.455.387-.707l6.961-17.375c1.422-3.594 4.883-5.918 8.805-5.918h85.758c4.586 0 8.438 3.164 9.352 7.625l3.231 16.375h-7.88c-4.422 0-8 3.582-8 8s3.578 8 8 8h16.971c.866.731 1.704 1.495 2.669 2.109 8.953 5.695 24.602 19.34 28.875 46.734.391 2.469-.711 4.195-1.398 5s-2.211 2.157-4.696 2.157h-23.732c-5.55-9.518-15.756-16-27.549-16s-21.999 6.482-27.549 16h-96.901c-5.55-9.518-15.756-16-27.549-16s-21.999 6.482-27.549 16zm33.844 16c0-8.824 7.18-16 16-16s16 7.176 16 16-7.18 16-16 16-16-7.176-16-16zm248 48h-480v-11.332c0-2.574 2.094-4.668 4.664-4.668h3.336c3.75 0 6.992-2.605 7.812-6.266.547-2.477 10.875-50.52-2.781-99.508 12.195 13.676 24.562 32.07 26.656 51.949.148 3.527.289 5.754.328 6.355.281 4.309 4.344 7.516 8.25 7.465 4.312-.145 7.734-3.68 7.734-7.996 0-2.219-.109-4.418-.305-6.594-.758-19.746-1.688-83.195 14.961-123.719-1.445 42.992-1.984 117.543 10.188 141.891 1.57 3.125 4.961 4.855 8.438 4.32 3.453-.562 6.141-3.305 6.641-6.766.055-.391 4.328-29.148 18.266-52.91-2.367 18.73-2.516 41.711 7.156 56.215 2 3.004 5.758 4.289 9.188 3.152.914-.305 16.789-5.898 21.695-26.938 1.594 5.367 2.07 11.168.188 16.816-4.43 13.289-.195 25.379 11.938 34.039 7.773 5.555 17.438 8.492 27.953 8.492h287.695v16.003z"/><path d="m231.346 256.02c-2.492-7.434-8.203-13.121-15.656-15.609-2.57-.844-5.414-.355-7.531 1.344-1.141.914-28.086 22.863-34.648 62.328-3.391 20.422 9.133 40.844 29.117 47.508.828.277 1.68.41 2.531.41 1.844 0 3.664-.641 5.125-1.859 2.133-1.773 3.188-4.527 2.797-7.273-4.18-29.23 5.922-51.328 15.133-64.723 4.507-6.56 5.648-14.626 3.132-22.126zm-16.32 13.066c-9.039 13.148-18.82 33.445-18.922 59.801-5.43-5.922-8.156-14.059-6.812-22.184 4.133-24.84 18.102-41.766 24.977-48.797.852.902 1.5 1.984 1.906 3.199.906 2.696.484 5.602-1.149 7.981z"/><path d="m267.292 294.582c.656.168 1.32.25 1.984.25 1.992 0 3.938-.742 5.43-2.125.875-.812 21.531-20.242 24.562-52.66 1.609-17.242-10.039-33.539-27.102-37.906-2.68-.695-5.539.062-7.531 1.988-2 1.926-2.859 4.746-2.273 7.453 4.883 22.539-1.758 40.324-8.188 51.277-3.477 5.922-3.961 12.938-1.336 19.242 2.61 6.251 7.875 10.801 14.454 12.481zm.679-23.625c6.094-10.371 12.336-25.75 12.086-44.949 2.453 3.637 3.703 8.035 3.273 12.547-1.688 18.066-10.289 31.359-15.484 37.883-.094-.176-.172-.344-.234-.496-.68-1.622-.547-3.442.359-4.985z"/><path d="m239.323 198.188c2.414-1.375 3.938-3.895 4.031-6.668.812-23.039 11.625-38.645 20.539-47.676 4.828-4.883 7.031-11.562 6.039-18.32-.992-6.703-4.977-12.414-10.945-15.664-2.383-1.293-5.25-1.297-7.648-.004-1.047.57-25.844 14.324-36.758 45.004-5.805 16.32 1.484 34.977 16.953 43.406 1.195.648 2.516.973 3.828.973 1.367-.001 2.734-.352 3.961-1.051zm-9.571-24.989c-1.484-4.129-1.617-8.703-.094-12.977 6.078-17.102 17.695-27.867 24.336-32.914.047.199.078.383.102.547.258 1.734-.32 3.461-1.586 4.742-8.445 8.559-18.281 21.93-22.758 40.602z"/></svg>